<svg width="36" height="36" viewBox="0 0 36 36" fill="none" xmlns="http://www.w3.org/2000/svg">
<path d="M28.7369 18.0552H8.67419C8.70358 19.9308 9.15922 21.6074 10.0411 23.0851C10.923 24.5627 12.1282 25.7136 13.6568 26.5377C15.2148 27.3618 16.9491 27.7739 18.8599 27.7739C20.4178 27.7739 21.8582 27.5039 23.181 26.964C24.5039 26.3957 25.5915 25.5716 26.444 24.4917L27.37 25.4295C26.3411 26.5946 25.0918 27.4897 23.622 28.1149C22.1522 28.7401 20.5648 29.0526 18.8599 29.0526C16.6258 29.0526 14.6268 28.5838 12.8631 27.646C11.1287 26.6798 9.76183 25.3442 8.76237 23.6392C7.76291 21.9342 7.26318 20.0018 7.26318 17.8421C7.26318 15.6824 7.71882 13.7501 8.63009 12.045C9.57076 10.34 10.8642 9.01862 12.5103 8.08086C14.1565 7.11468 15.9938 6.63159 18.0221 6.63159C20.021 6.63159 21.8288 7.10047 23.4456 8.03824C25.0918 8.976 26.3852 10.2832 27.3259 11.9598C28.2665 13.6364 28.7369 15.5403 28.7369 17.6716V18.0552ZM18.0221 7.91036C16.3171 7.91036 14.7738 8.29399 13.3922 9.06125C12.0106 9.82851 10.9083 10.9084 10.0852 12.3008C9.2621 13.6648 8.80647 15.1993 8.71828 16.9044H27.37C27.2524 15.1993 26.7673 13.6648 25.9149 12.3008C25.0918 10.9084 23.9894 9.82851 22.6078 9.06125C21.2556 8.29399 19.727 7.91036 18.0221 7.91036Z" fill="white"/>
</svg>
