<svg width="32" height="33" viewBox="0 0 32 33" fill="none" xmlns="http://www.w3.org/2000/svg">
<path d="M20.9552 23.9177C17.9584 25.1773 11.8336 25.4579 11.3087 16.5034C11.1337 13.5186 12.8002 8.69642 17.804 8.50185C20.3272 8.58994 23.2757 10.6327 23.5878 15.1043C20.4716 14.9586 13.8855 14.9068 6.94801 11.3905C5.13 10.5126 3.19827 10.127 2.27419 12.3464C1.65185 13.8411 2.51895 14.6968 4.2742 15.8341C8.2742 17.827 13.9454 19.7061 25.2742 20.3182C26.6941 20.2816 29.8102 20.0542 29.9206 16.6362C30.0464 12.7408 27.6386 4.85225 20.6388 2.54494C16.8495 1.54348 11.2482 2.17974 7.73968 8.39666C6.70616 9.97506 4.27419 14.3394 5.30923 20.0666C5.96855 23.6222 8.12129 28.5851 13.6412 30.2598C15.8543 30.9312 20.6827 30.9598 23.6877 29.115C24.4626 28.5677 26.0124 27.473 25.2184 24.9343C24.8782 23.8463 23.1984 22.6605 20.9552 23.9177Z" stroke="black"/>
</svg>
