<svg width="32" height="32" viewBox="0 0 32 32" fill="none" xmlns="http://www.w3.org/2000/svg">
<path d="M16.9465 26.5688C12.7808 26.4689 9.97544 24.1954 8.98765 22.9879L10.3847 22.1135C12.857 24.5785 15.7893 25.1115 16.9465 25.0699C21.4847 25.0032 24.0868 22.3217 24.8206 20.9893C25.9721 19.457 26.3164 17.7137 26.3446 17.0336C26.514 16.1342 27.0643 16.0481 27.3183 16.1175C27.9279 16.1508 28.0239 16.7421 27.9956 17.0336C27.6908 19.1988 26.6268 21.1003 26.1329 21.7804C23.322 25.8443 18.8374 26.666 16.9465 26.5688Z" fill="white"/>
<path fill-rule="evenodd" clip-rule="evenodd" d="M7.29429 20.3647C6.47583 18.8102 5.32999 14.7518 7.29429 10.9543C8.23974 9.10835 11.4092 5.33311 16.5231 5H26.3446C26.6268 6.70719 26.6064 10.9127 22.5769 13.6608L9.28399 21.1142C8.16919 21.7388 5.90573 23.4959 5.77026 25.5279C5.75615 25.9581 5.50779 26.7687 4.62724 26.5688C4.35913 26.4717 3.86523 26.1275 4.03456 25.5279C3.97812 24.7923 4.55104 22.7298 7.29429 20.3647ZM21.7302 12.37L9.11465 19.5735L8.60664 19.865C6.36294 14.7435 9.03 10.9543 9.03 10.9543C11.4007 7.29013 14.8156 6.61003 16.5231 6.58227H24.9476C24.8121 9.48032 22.7462 11.6483 21.7302 12.37Z" fill="white"/>
</svg>
