<svg width="36" height="36" viewBox="0 0 36 36" fill="none" xmlns="http://www.w3.org/2000/svg">
<path d="M29.2061 18.3869H9.87012C10.0459 20.8009 10.9687 22.7586 12.6387 24.26C14.3086 25.732 16.418 26.468 18.9668 26.468C20.4023 26.468 21.7207 26.2178 22.9219 25.7173C24.123 25.1874 25.1631 24.422 26.042 23.421L27.7998 25.4523C26.7744 26.6888 25.4854 27.6308 23.9326 28.2785C22.4092 28.9262 20.7246 29.25 18.8789 29.25C16.5059 29.25 14.3965 28.7495 12.5508 27.7486C10.7344 26.7182 9.31348 25.3051 8.28809 23.5093C7.2627 21.7136 6.75 19.6822 6.75 17.4154C6.75 15.1486 7.2334 13.1173 8.2002 11.3215C9.19629 9.5257 10.5439 8.12734 12.2432 7.1264C13.9717 6.12547 15.9053 5.625 18.0439 5.625C20.1826 5.625 22.1016 6.12547 23.8008 7.1264C25.5 8.12734 26.833 9.5257 27.7998 11.3215C28.7666 13.0878 29.25 15.1192 29.25 17.4154L29.2061 18.3869ZM18.0439 8.31869C15.8174 8.31869 13.9424 9.03995 12.4189 10.4825C10.9248 11.8956 10.0752 13.7502 9.87012 16.0465H26.2617C26.0566 13.7502 25.1924 11.8956 23.6689 10.4825C22.1748 9.03995 20.2998 8.31869 18.0439 8.31869Z" fill="#0C0C0C"/>
</svg>
