<svg width="36" height="36" viewBox="0 0 36 36" fill="none" xmlns="http://www.w3.org/2000/svg">
<path d="M30 18.2471H6.64271C6.67693 20.4221 7.20739 22.3663 8.23409 24.0798C9.26078 25.7934 10.6639 27.128 12.4435 28.0836C14.2574 29.0393 16.2765 29.5171 18.501 29.5171C20.3149 29.5171 21.9918 29.2041 23.5318 28.5779C25.0719 27.9189 26.3381 26.9632 27.3306 25.711L28.4086 26.7985C27.2108 28.1496 25.7563 29.1876 24.0452 29.9125C22.334 30.6375 20.486 31 18.501 31C15.9001 31 13.5729 30.4563 11.5195 29.3688C9.50034 28.2484 7.90897 26.6996 6.74538 24.7224C5.58179 22.7452 5 20.5044 5 18C5 15.4956 5.53046 13.2548 6.59138 11.2776C7.68652 9.30038 9.19233 7.76806 11.1088 6.68061C13.0253 5.5602 15.1643 5 17.5257 5C19.8528 5 21.9576 5.54373 23.8398 6.63118C25.7563 7.71863 27.2621 9.23447 28.3573 11.1787C29.4524 13.1229 30 15.3308 30 17.8023V18.2471ZM17.5257 6.48289C15.5407 6.48289 13.744 6.92775 12.1355 7.81749C10.527 8.70722 9.24367 9.95944 8.28542 11.5741C7.32717 13.1559 6.79671 14.9354 6.69404 16.9125H28.4086C28.2717 14.9354 27.707 13.1559 26.7146 11.5741C25.7563 9.95944 24.473 8.70722 22.8645 7.81749C21.2902 6.92775 19.5106 6.48289 17.5257 6.48289Z" fill="#262626"/>
</svg>
