<svg width="32" height="32" viewBox="0 0 32 32" fill="none" xmlns="http://www.w3.org/2000/svg">
<path d="M16.9465 26.9683C12.7808 26.8665 9.97544 24.5509 8.98765 23.321L10.3847 22.4304C12.857 24.9411 15.7893 25.4839 16.9465 25.4415C21.4847 25.3737 24.0868 22.6425 24.8206 21.2854C25.9721 19.7247 26.3164 17.9491 26.3446 17.2564C26.514 16.3404 27.0643 16.2527 27.3183 16.3234C27.9279 16.3573 28.0239 16.9596 27.9956 17.2564C27.6908 19.4617 26.6268 21.3985 26.1329 22.0911C23.322 26.2303 18.8374 27.0672 16.9465 26.9683Z" fill="#121212"/>
<path fill-rule="evenodd" clip-rule="evenodd" d="M7.29429 20.6492C6.47583 19.0659 5.32999 14.9324 7.29429 11.0646C8.23974 9.18443 11.4092 5.33928 16.5231 5H26.3446C26.6268 6.7388 26.6064 11.0222 22.5769 13.8212L9.28399 21.4126C8.16919 22.0487 5.90573 23.8384 5.77026 25.908C5.75615 26.3463 5.50779 27.1718 4.62724 26.9683C4.35913 26.8693 3.86523 26.5187 4.03456 25.908C3.97812 25.1588 4.55104 23.0581 7.29429 20.6492ZM21.7302 12.5065L9.11465 19.8434L8.60664 20.1403C6.36294 14.9239 9.03 11.0646 9.03 11.0646C11.4007 7.33254 14.8156 6.63985 16.5231 6.61157H24.9476C24.8121 9.56329 22.7462 11.7714 21.7302 12.5065Z" fill="#121212"/>
</svg>
