<svg width="36" height="36" viewBox="0 0 36 36" fill="none" xmlns="http://www.w3.org/2000/svg">
<path d="M29 18.2281H7.51129C7.54278 20.2357 8.0308 22.0304 8.97536 23.6122C9.91992 25.1939 11.2108 26.4259 12.848 27.308C14.5168 28.1901 16.3744 28.6312 18.4209 28.6312C20.0897 28.6312 21.6324 28.3422 23.0493 27.7643C24.4661 27.1559 25.6311 26.2738 26.5441 25.1179L27.5359 26.1217C26.4339 27.3688 25.0958 28.327 23.5216 28.9962C21.9473 29.6654 20.2471 30 18.4209 30C16.0281 30 13.8871 29.4981 11.9979 28.4943C10.1403 27.4601 8.67625 26.0304 7.60575 24.2053C6.53525 22.3802 6 20.3118 6 18C6 15.6882 6.48802 13.6198 7.46407 11.7947C8.47159 9.96958 9.85695 8.55513 11.6201 7.55133C13.3833 6.51711 15.3511 6 17.5236 6C19.6646 6 21.601 6.5019 23.3326 7.5057C25.0958 8.50951 26.4812 9.90874 27.4887 11.7034C28.4962 13.4981 29 15.5361 29 17.8175V18.2281ZM17.5236 7.36882C15.6975 7.36882 14.0445 7.77946 12.5647 8.60076C11.0849 9.42205 9.90418 10.5779 9.02259 12.0684C8.141 13.5285 7.65298 15.1711 7.55852 16.9962H27.5359C27.41 15.1711 26.8905 13.5285 25.9774 12.0684C25.0958 10.5779 23.9151 9.42205 22.4353 8.60076C20.987 7.77946 19.3498 7.36882 17.5236 7.36882Z" fill="#121212"/>
</svg>
